<svg width="46" height="32" viewBox="0 0 46 32" fill="none" xmlns="http://www.w3.org/2000/svg">
<path d="M35.2286 31L45 14.0645L41.5 14.7578L35.5 15.9462L35.2286 16V31Z" fill="#FFC700"/>
<path d="M35.2286 31L45 14.0645L41.5 14.7578L35.5 15.9462L35.2286 16V31Z" fill="#C5A70C"/>
<path d="M45 14.0645L35.2286 1V12L45 14.0645Z" fill="#FFC700"/>
<path d="M45 14.0645L35.2286 1V12L45 14.0645Z" fill="#C5A70C"/>
<path d="M35.2286 1L2 14.0645L25.5 12.6044L35.2286 12V1Z" fill="#FFC700"/>
<path d="M35.2286 1L2 14.0645L25.5 12.6044L35.2286 12V1Z" fill="#C5A70C"/>
<path d="M2 14.0645L35.2286 31V16L2 14.0645Z" fill="#FFC700"/>
<path d="M2 14.0645L35.2286 31V16L2 14.0645Z" fill="#C5A70C"/>
<path d="M45 14.0645L35.2286 12V13.0323V13.5484V14.0645H40H45Z" fill="#FFC700"/>
<path d="M45 14.0645L35.2286 12V13.0323V13.5484V14.0645H40H45Z" fill="#C39800"/>
<path d="M35.2286 12L25.5 12.6044L2 14.0645H18.6143H35.2286V13.5484V13.0323V12Z" fill="#FFC700"/>
<path d="M35.2286 12L25.5 12.6044L2 14.0645H18.6143H35.2286V13.5484V13.0323V12Z" fill="#C39800"/>
<path d="M2 14.0645L35.2286 16V14.0645H18.6143H2Z" fill="#FFC700"/>
<path d="M2 14.0645L35.2286 16V14.0645H18.6143H2Z" fill="#C39800"/>
<path d="M35.2286 16L35.5 15.9462L41.5 14.7578L45 14.0645H40H35.2286V16Z" fill="#FFC700"/>
<path d="M35.2286 16L35.5 15.9462L41.5 14.7578L45 14.0645H40H35.2286V16Z" fill="#C39800"/>
<path d="M2 14.0645L35.2286 1M2 14.0645L35.2286 31M2 14.0645L35.2286 16M2 14.0645H18.6143M2 14.0645L25.5 12.6044M35.2286 1L45 14.0645M35.2286 1V12M45 14.0645L35.2286 31M45 14.0645L35.2286 12M45 14.0645L41.5 14.7578M45 14.0645H40M35.2286 31V16M35.2286 16V14.0645M35.2286 16L35.5 15.9462M35.2286 12L25.5 12.6044M35.2286 12V13.0323M35.2286 14.0645H18.6143M35.2286 14.0645H40M35.2286 14.0645V13.5484M18.6143 14.0645L41.5 14.7578M41.5 14.7578L35.5 15.9462M25.5 12.6044L35.2286 13.0323M35.2286 13.0323V13.5484M35.5 12.5L40 14.0645M35.2286 13.5484L37 13.5L35.5 15.9462M36.5 15.5H37L20 14.7578L18.1607 13.5484L35 13.5" stroke="#FFC700"/>
</svg>
